<?xml version="1.0" standalone="no"?><!DOCTYPE svg PUBLIC "-//W3C//DTD SVG 1.1//EN" "http://www.w3.org/Graphics/SVG/1.1/DTD/svg11.dtd"><svg t="1745137952183" class="icon" viewBox="0 0 1024 1024" version="1.1" xmlns="http://www.w3.org/2000/svg" p-id="1495" xmlns:xlink="http://www.w3.org/1999/xlink" width="200" height="200"><path d="M868.522667 384.597333H559.601778c22.001778-27.320889 34.944-57.799111 35.569778-86.826666 0.64-31.132444-12.359111-58.936889-37.575112-80.398223-58.865778-50.076444-65.834667-73.784889-33.962666-115.328a28.472889 28.472889 0 0 0-45.141334-34.645333c-73.045333 95.203556 1.948444 159.018667 42.225778 193.308445 12.103111 10.282667 17.848889 22.016 17.550222 35.868444-0.526222 24.618667-19.854222 55.338667-49.265777 78.293333a28.088889 28.088889 0 0 0-7.850667 9.728H155.477333A98.602667 98.602667 0 0 0 56.888889 483.185778v385.948444a98.602667 98.602667 0 0 0 98.588444 98.588445h713.045334A98.602667 98.602667 0 0 0 967.111111 869.134222h0.014222V483.185778a98.602667 98.602667 0 0 0-98.602666-98.588445z m41.713777 484.536889a41.713778 41.713778 0 0 1-41.713777 41.699556H155.477333A41.699556 41.699556 0 0 1 113.777778 869.134222V483.185778a41.699556 41.699556 0 0 1 41.699555-41.699556h713.045334A41.699556 41.699556 0 0 1 910.222222 483.185778h0.014222v385.948444z" fill="" p-id="1496"></path><path d="M267.306667 541.041778h-14.222223c-7.864889 0-14.222222 6.343111-14.222222 14.222222s6.357333 14.222222 14.222222 14.222222h14.222223c7.864889 0 14.222222-6.343111 14.222222-14.222222s-6.357333-14.222222-14.222222-14.222222zM352.64 569.486222h14.222222c7.864889 0 14.222222-6.343111 14.222222-14.222222s-6.357333-14.222222-14.222222-14.222222h-14.222222c-7.864889 0-14.222222 6.343111-14.222222 14.222222s6.357333 14.222222 14.222222 14.222222zM452.195556 569.486222h14.222222c7.864889 0 14.222222-6.343111 14.222222-14.222222s-6.357333-14.222222-14.222222-14.222222h-14.222222c-7.864889 0-14.222222 6.343111-14.222223 14.222222s6.357333 14.222222 14.222223 14.222222zM537.528889 569.486222h14.222222c7.864889 0 14.222222-6.343111 14.222222-14.222222s-6.357333-14.222222-14.222222-14.222222h-14.222222c-7.864889 0-14.222222 6.343111-14.222222 14.222222s6.357333 14.222222 14.222222 14.222222zM637.084444 569.486222h14.222223c7.864889 0 14.222222-6.343111 14.222222-14.222222s-6.357333-14.222222-14.222222-14.222222h-14.222223c-7.864889 0-14.222222 6.343111-14.222222 14.222222s6.357333 14.222222 14.222222 14.222222zM750.862222 541.041778h-14.222222c-7.864889 0-14.222222 6.343111-14.222222 14.222222s6.357333 14.222222 14.222222 14.222222h14.222222c7.864889 0 14.222222-6.343111 14.222222-14.222222s-6.357333-14.222222-14.222222-14.222222zM267.306667 626.375111h-14.222223c-7.864889 0-14.222222 6.343111-14.222222 14.222222s6.357333 14.222222 14.222222 14.222223h14.222223c7.864889 0 14.222222-6.343111 14.222222-14.222223s-6.357333-14.222222-14.222222-14.222222zM352.64 654.819556h14.222222c7.864889 0 14.222222-6.343111 14.222222-14.222223s-6.357333-14.222222-14.222222-14.222222h-14.222222c-7.864889 0-14.222222 6.343111-14.222222 14.222222s6.357333 14.222222 14.222222 14.222223zM452.195556 654.819556h14.222222c7.864889 0 14.222222-6.343111 14.222222-14.222223s-6.357333-14.222222-14.222222-14.222222h-14.222222c-7.864889 0-14.222222 6.343111-14.222223 14.222222s6.357333 14.222222 14.222223 14.222223zM537.528889 654.819556h14.222222c7.864889 0 14.222222-6.343111 14.222222-14.222223s-6.357333-14.222222-14.222222-14.222222h-14.222222c-7.864889 0-14.222222 6.343111-14.222222 14.222222s6.357333 14.222222 14.222222 14.222223zM637.084444 654.819556h14.222223c7.864889 0 14.222222-6.343111 14.222222-14.222223s-6.357333-14.222222-14.222222-14.222222h-14.222223c-7.864889 0-14.222222 6.343111-14.222222 14.222222s6.357333 14.222222 14.222222 14.222223zM750.862222 626.375111h-14.222222c-7.864889 0-14.222222 6.343111-14.222222 14.222222s6.357333 14.222222 14.222222 14.222223h14.222222c7.864889 0 14.222222-6.343111 14.222222-14.222223s-6.357333-14.222222-14.222222-14.222222zM267.306667 797.041778h-14.222223c-7.864889 0-14.222222 6.343111-14.222222 14.222222s6.357333 14.222222 14.222222 14.222222h14.222223c7.864889 0 14.222222-6.343111 14.222222-14.222222s-6.357333-14.222222-14.222222-14.222222zM665.528889 797.041778h-312.888889c-7.864889 0-14.222222 6.343111-14.222222 14.222222s6.357333 14.222222 14.222222 14.222222h312.888889c7.864889 0 14.222222-6.343111 14.222222-14.222222s-6.357333-14.222222-14.222222-14.222222zM750.862222 797.041778h-14.222222c-7.864889 0-14.222222 6.343111-14.222222 14.222222s6.357333 14.222222 14.222222 14.222222h14.222222c7.864889 0 14.222222-6.343111 14.222222-14.222222s-6.357333-14.222222-14.222222-14.222222zM267.306667 711.708444h-14.222223c-7.864889 0-14.222222 6.343111-14.222222 14.222223s6.357333 14.222222 14.222222 14.222222h14.222223c7.864889 0 14.222222-6.343111 14.222222-14.222222s-6.357333-14.222222-14.222222-14.222223zM352.64 740.152889h14.222222c7.864889 0 14.222222-6.343111 14.222222-14.222222s-6.357333-14.222222-14.222222-14.222223h-14.222222c-7.864889 0-14.222222 6.343111-14.222222 14.222223s6.357333 14.222222 14.222222 14.222222zM452.195556 740.152889h14.222222c7.864889 0 14.222222-6.343111 14.222222-14.222222s-6.357333-14.222222-14.222222-14.222223h-14.222222c-7.864889 0-14.222222 6.343111-14.222223 14.222223s6.357333 14.222222 14.222223 14.222222zM537.528889 740.152889h14.222222c7.864889 0 14.222222-6.343111 14.222222-14.222222s-6.357333-14.222222-14.222222-14.222223h-14.222222c-7.864889 0-14.222222 6.343111-14.222222 14.222223s6.357333 14.222222 14.222222 14.222222zM637.084444 740.152889h14.222223c7.864889 0 14.222222-6.343111 14.222222-14.222222s-6.357333-14.222222-14.222222-14.222223h-14.222223c-7.864889 0-14.222222 6.343111-14.222222 14.222223s6.357333 14.222222 14.222222 14.222222zM750.862222 711.708444h-14.222222c-7.864889 0-14.222222 6.343111-14.222222 14.222223s6.357333 14.222222 14.222222 14.222222h14.222222c7.864889 0 14.222222-6.343111 14.222222-14.222222s-6.357333-14.222222-14.222222-14.222223z" fill="" p-id="1497"></path></svg>